# xmcd
#
# Track frame offsets: 
#        150
#        11369
#        26677
#        44112
#        55634
#        77309
#        92462
#        107514
#        122421
#        138794
#
# Disc length: 2029 seconds
#
# Revision: 0
# Processed by: cddbd v1.5.2PL0 Copyright (c) Steve Scherf et al.
# Submitted via: ExactAudioCopyFreeDBPlugin 1.0
#
DISCID=6807eb0a
DTITLE=Jim Eikenberry - Livin' On The River
DYEAR=2011
DGENRE=Country
TTITLE0=The River Song
TTITLE1=Unconditional Love
TTITLE2=Chase It
TTITLE3=Park the Car...Wilby
TTITLE4=Somewhere on the Shore
TTITLE5=Manitou Moon
TTITLE6=Whistle Bit (The Train Song)
TTITLE7=Hpnotized by a Flame
TTITLE8=Save a Spot for Me
TTITLE9=Still Wind
EXTD=
EXTT0=
EXTT1=
EXTT2=
EXTT3=
EXTT4=
EXTT5=
EXTT6=
EXTT7=
EXTT8=
EXTT9=
PLAYORDER=
